Coordinates
version=1
nRows=9
nColumns=36
inDegrees=yes

Units are S.I. units (second, meters, Newtons, ...)
If the header above contains a line with 'inDegrees', this indicates whether rotational values are in degrees (yes) or radians (no).

endheader
time	pelvis_tilt	pelvis_list	pelvis_rotation	pelvis_tx	pelvis_ty	pelvis_tz	hip_flexion_r	hip_adduction_r	hip_rotation_r	knee_angle_r	knee_angle_r_beta	ankle_angle_r	subtalar_angle_r	mtp_angle_r	hip_flexion_l	hip_adduction_l	hip_rotation_l	knee_angle_l	knee_angle_l_beta	ankle_angle_l	subtalar_angle_l	mtp_angle_l	lumbar_extension	lumbar_bending	lumbar_rotation	arm_flex_r	arm_add_r	arm_rot_r	elbow_flex_r	pro_sup_r	arm_flex_l	arm_add_l	arm_rot_l	elbow_flex_l	pro_sup_l
      5.15000000	     -8.14516466	      0.48248357	      0.27446555	      0.37770477	      0.90248125	      0.04267353	      5.96028356	     -2.93094248	     -1.33244350	      2.22000621	      0.03874642	      4.35125498	    -10.22849435	     -7.49999987	      2.82294697	     -8.34930411	    -15.45703641	      1.01678085	      0.01774617	      2.37929476	      2.17903747	     -7.49999987	      1.81400445	      4.69612816	     -1.39144130	    -17.29608763	    -24.81882216	    -65.56717077	     47.25467612	     56.11901778	    343.30098933	    -17.59273669	    298.20774650	     40.97099817	     66.81811600
      5.15416670	     -8.02654363	      0.44724977	      0.30683634	      0.37853778	      0.90109341	      0.04396740	      5.76104027	     -2.88431267	     -1.26783692	      2.08170855	      0.03633267	      4.28939061	    -10.26048416	     -7.49999987	      2.75755663	     -8.42257532	    -15.50678695	      1.09480425	      0.01910794	      2.32888523	      2.04959195	     -7.49999987	      1.79744987	      4.62390902	     -1.92073476	    -16.46738444	    -25.02415666	    -64.74137503	     46.98920031	     56.61137891	    343.02648434	    -17.42006533	    297.37161515	     41.31544755	     66.20509989
      5.15833330	     -8.22113202	      0.49248361	      0.21894798	      0.37940714	      0.90379933	      0.04273307	      5.95047429	     -2.94227387	     -1.27478653	      2.08352871	      0.03636444	      4.34354961	     -9.97502623	     -7.49999987	      2.96514164	     -8.38874529	    -15.64624036	      1.13036377	      0.01972857	      2.17887762	      2.04498492	     -7.49999987	      2.13124502	      4.54418810	     -1.25375636	    -16.87078606	    -24.57909172	    -65.52237791	     46.86488917	     56.74181988	    343.61190421	    -17.57838084	    298.53872710	     40.49246691	     66.58004017
      5.16250000	     -8.23800763	      0.51871244	      0.19982468	      0.38042509	      0.90375095	      0.04153520	      5.87764311	     -3.00345071	     -1.21398290	      1.98420082	      0.03463084	      4.27908647	     -9.86234344	     -7.49999987	      3.00391408	     -8.35256252	    -15.70548842	      1.20253198	      0.02098814	      2.08629151	      1.93884179	     -7.49999987	      2.25973847	      4.42532913	     -1.34209177	    -16.53328483	    -24.50191187	    -65.31195868	     46.64559010	     56.81359008	    343.60518745	    -17.42205340	    298.26234582	     40.42563608	     67.06202953
      5.16666670	     -8.19022944	      0.56502879	      0.21124194	      0.38061121	      0.90542562	      0.04170990	      5.69987497	     -3.09009195	     -1.19345584	      1.82471035	      0.03184720	      4.12598473	     -9.83896710	     -7.49999987	      2.96174465	     -8.27407717	    -15.75220644	      1.24919677	      0.02180260	      1.96694580	      1.86353585	     -7.49999987	      2.25156952	      4.24888827	     -1.87749599	    -15.67985544	    -24.69878325	    -64.39184714	     45.92758138	     57.43095733	    343.24843458	    -16.93348983	    297.31987036	     40.86367922	     66.23052905
      5.17083330	     -8.33170602	      0.60535750	      0.08763366	      0.37989484	      0.90492902	      0.04214125	      5.85320326	     -3.15647089	     -1.06278060	      1.83806982	      0.03208037	      3.99845505	     -9.97926554	     -7.49999987	      3.07780129	     -8.20608271	    -16.05419119	      1.29443875	      0.02259222	      2.00666620	      2.06360274	     -7.49999987	      2.57588045	      4.10638810	     -1.45531846	    -15.78979021	    -24.47531014	    -64.53600310	     45.70464607	     57.44821854	    343.52421995	    -17.01562871	    297.88671077	     40.42833919	     66.88651965
      5.17500000	     -8.38615197	      0.62934301	      0.03850690	      0.38120839	      0.90544814	      0.04139066	      5.85160037	     -3.21782815	     -1.14509966	      1.78548517	      0.03116260	      3.90212485	     -9.87712417	     -7.49999987	      3.11017816	     -8.12787213	    -16.08004439	      1.34171158	      0.02341728	      1.90437724	      1.89124318	     -7.49999987	      2.74863344	      4.00582568	     -1.06655275	    -15.96779271	    -24.11655906	    -65.04657397	     45.78164933	     57.45176338	    343.93927736	    -16.96018595	    297.99130277	     40.29429918	     67.72641838
      5.17916670	     -8.30780831	      0.64354803	      0.02909409	      0.37993783	      0.90567038	      0.04244318	      5.73740160	     -3.24713569	     -1.28963764	      1.73143652	      0.03021927	      3.89529634	     -9.69422551	     -7.49999987	      3.02324294	     -8.08115523	    -16.04667012	      1.36429408	      0.02381142	      1.86424005	      1.78542171	     -7.49999987	      2.72563947	      3.82116481	     -1.48569751	    -15.28643459	    -24.12932114	    -64.18897971	     45.42350816	     57.81941685	    343.71653794	    -16.69887868	    297.28209653	     40.59258355	     67.18837709
      5.18333330	     -8.42337826	      0.65037897	     -0.01921572	      0.37992507	      0.90345344	      0.04298847	      5.85829875	     -3.24001304	     -1.08413925	      1.67337331	      0.02920587	      3.65338615	    -10.09148138	     -7.49999987	      3.16527421	     -8.07175779	    -15.96553939	      1.43110805	      0.02497755	      1.82476640	      1.48252912	     -7.49999987	      2.98580471	      3.72182868	     -1.33830394	    -15.33136422	    -23.97623794	    -64.04924346	     45.42102131	     57.91568360	    343.75780872	    -16.73928384	    297.59900408	     40.51071156	     67.86099759
